<svg height="1024" viewBox="0 0 1024 1024" width="1024" xmlns="http://www.w3.org/2000/svg"><path d="m394.666667 106.666667h448a74.666667 74.666667 0 0 1 74.666666 74.666666v448a74.666667 74.666667 0 0 1 -74.666666 74.666667h-448a74.666667 74.666667 0 0 1 -74.666667-74.666667v-448a74.666667 74.666667 0 0 1 74.666667-74.666666zm0 64a10.666667 10.666667 0 0 0 -10.666667 10.666666v448a10.666667 10.666667 0 0 0 10.666667 10.666667h448a10.666667 10.666667 0 0 0 10.666666-10.666667v-448a10.666667 10.666667 0 0 0 -10.666666-10.666666zm245.333333 597.333333a32 32 0 0 1 64 0v74.666667a74.666667 74.666667 0 0 1 -74.666667 74.666666h-448a74.666667 74.666667 0 0 1 -74.666666-74.666666v-448a74.666667 74.666667 0 0 1 74.666666-74.666667h74.666667a32 32 0 0 1 0 64h-74.666667a10.666667 10.666667 0 0 0 -10.666666 10.666667v448a10.666667 10.666667 0 0 0 10.666666 10.666666h448a10.666667 10.666667 0 0 0 10.666667-10.666666z" fill="#efa11f"/></svg>