<?xml version="1.0" standalone="no"?><!DOCTYPE svg PUBLIC "-//W3C//DTD SVG 1.1//EN" "http://www.w3.org/Graphics/SVG/1.1/DTD/svg11.dtd"><svg t="1687313451470" class="icon" viewBox="0 0 1024 1024" version="1.1" xmlns="http://www.w3.org/2000/svg" p-id="4834" xmlns:xlink="http://www.w3.org/1999/xlink" width="1024" height="1024"><path d="M921.696 439.648c39.872 226.144-111.2 441.824-337.472 481.728-21.536 3.776-43.008 5.856-64.224 6.304l-0.576 0.192c-201.344 3.616-381.056-139.424-417.12-343.808C62.432 357.888 213.504 142.208 439.776 102.304c19.392-3.392 38.72-5.44 57.824-6.08l9.568-0.256c200.256-2.56 378.592 140.096 414.528 343.68zM398.048 178.816C236.544 233.92 134.816 399.776 165.344 572.928c29.824 169.088 175.776 288.512 341.408 290.816a176 176 0 0 0 1.216-318.272l-7.04-3.168v-0.064l-6.624-2.816a239.68 239.68 0 0 1-138.72-177.504 239.616 239.616 0 0 1 42.464-183.104z m121.152-18.848l-3.84 1.792a176.032 176.032 0 0 0 3.744 318.656l7.2 3.104 7.552 3.456a239.68 239.68 0 0 1 134.72 175.68 239.616 239.616 0 0 1-41.536 181.76c160.832-55.36 262.08-220.896 231.616-393.664-29.696-168.416-174.624-287.584-339.456-290.784zM464 656a48 48 0 1 1 0 96 48 48 0 0 1 0-96z m96-384a48 48 0 1 1 0 96 48 48 0 0 1 0-96z" fill="#ffffff" p-id="4835"></path></svg>