<?xml version="1.0" standalone="no"?><!DOCTYPE svg PUBLIC "-//W3C//DTD SVG 1.1//EN" "http://www.w3.org/Graphics/SVG/1.1/DTD/svg11.dtd"><svg t="1687315189051" class="icon" viewBox="0 0 1024 1024" version="1.1" xmlns="http://www.w3.org/2000/svg" p-id="1390" xmlns:xlink="http://www.w3.org/1999/xlink" width="1024" height="1024"><path d="M512 1024C229.239467 1024 0 794.760533 0 512S229.239467 0 512 0 1024 229.239467 1024 512 794.760533 1024 512 1024z m277.981867-677.250844c-68.8128-67.766044-180.406044-67.766044-249.196089 0l-17.590045 17.294222-17.567289-17.294222c-68.835556-67.766044-180.406044-67.766044-249.196088 0a171.576889 171.576889 0 0 0 0 245.3504l17.567288 17.294222 249.196089 208.941511 249.196089-208.918756 17.590045-17.294222a171.6224 171.6224 0 0 0 0-245.373155z" fill="#f5659a" p-id="1391" data-spm-anchor-id="a313x.7781069.0.i3" class="selected"></path></svg>