<svg height="1024" width="1024" xmlns="http://www.w3.org/2000/svg"><path d="m719.76493 317.53703c-10.84193-11.64932-29.12227-12.28377-40.71224-1.38453-11.64932 10.89923-12.22646 29.12227-1.38453 40.77056 5.36315 5.76633 14.53197 18.51161 23.98936 37.77228 16.14675 32.87064 25.89272 71.44929 25.89272 115.50773 0 44.05845-9.74597 82.6944-25.89272 115.50774-9.45739 19.25964-18.62621 32.00492-23.98936 37.77228-10.89924 11.64829-10.26479 29.87133 1.38453 40.77056 11.64829 10.89924 29.87133 10.26479 40.77057-1.38453 9.05421-9.68764 21.50989-26.98765 33.62072-51.72711 19.89512-40.48301 31.77468-87.65436 31.77468-140.99624s-11.87956-100.51425-31.77468-140.99624zm176.80684-35.69599c-23.29761-39.44436-46.82547-66.77892-63.31809-81.48383-11.88059-10.60964-30.1026-9.572-40.71429 2.36486-10.60963 11.93687-9.57303 30.10158 2.36487 40.71224 2.70971 2.42114 8.13119 7.84262 15.39666 16.26136 12.45568 14.41634 24.91137 31.60174 36.61901 51.43956 33.50407 56.86 53.63046 123.34932 53.63046 199.06682s-20.12639 142.20682-53.68776 199.12515c-11.70663 19.83679-24.22064 37.0222-36.61902 51.43854-7.26547 8.41874-12.68695 13.84021-15.39768 16.26136-11.87957 10.61066-12.91617 28.83369-2.36384 40.71428 10.55336 11.87956 28.8337 12.91617 40.71326 2.36384 16.49365-14.70491 40.02151-41.98216 63.31912-81.48383 38.52236-65.33605 61.64601-141.7453 61.64601-228.41934.05833-86.61468-23.06635-163.02393-61.58871-228.36101z" fill="#60a3fa"/></svg>