<svg height="1024" width="1024" xmlns="http://www.w3.org/2000/svg"><path d="m719.76493 317.53703c-10.84193-11.64932-29.12227-12.28377-40.71224-1.38453-11.64932 10.89923-12.22646 29.12227-1.38453 40.77056 5.36315 5.76633 14.53197 18.51161 23.98936 37.77228 16.14675 32.87064 25.89272 71.44929 25.89272 115.50773 0 44.05845-9.74597 82.6944-25.89272 115.50774-9.45739 19.25964-18.62621 32.00492-23.98936 37.77228-10.89924 11.64829-10.26479 29.87133 1.38453 40.77056 11.64829 10.89924 29.87133 10.26479 40.77057-1.38453 9.05421-9.68764 21.50989-26.98765 33.62072-51.72711 19.89512-40.48301 31.77468-87.65436 31.77468-140.99624s-11.87956-100.51425-31.77468-140.99624c-12.16916-24.62484-24.62586-41.98319-33.67905-51.6125z" fill="#60a3fa"/></svg>