<svg height="1024" viewBox="0 0 1024 1024" width="1024" xmlns="http://www.w3.org/2000/svg"><g fill="#6366f1"><path d="m648.533333 674.474667a34.133333 34.133333 0 0 1 34.048 31.607466l.085334 2.542934v51.2a68.266667 68.266667 0 0 1 -64.853334 68.181333l-3.413333.085333h-204.8a68.266667 68.266667 0 0 1 -68.181333-64.853333l-.085334-3.413333v-51.2a34.133333 34.133333 0 0 1 68.181334-2.56l.085333 2.56v51.2h204.8v-51.2a34.133333 34.133333 0 0 1 34.133333-34.133334zm-51.2 196.642133a34.133333 34.133333 0 0 1 2.56 68.164267l-2.56.1024h-170.666666a34.133333 34.133333 0 0 1 -2.56-68.181334l2.56-.085333z"/><path d="m512 51.2c197.9392 0 358.4 160.4608 358.4 358.4 0 145.749333-80.554667 272.7936-208.213333 328.567467a34.133333 34.133333 0 0 1 -27.306667-62.549334c102.4-44.765866 167.253333-147.029333 167.253333-266.018133 0-160.238933-129.8944-290.133333-290.133333-290.133333s-290.133333 129.8944-290.133333 290.133333c0 118.9888 64.836267 221.252267 167.253333 266.018133a34.133333 34.133333 0 0 1 -27.306667 62.549334c-127.658666-55.773867-208.213333-182.818134-208.213333-328.567467 0-197.9392 160.4608-358.4 358.4-358.4z"/><path d="m490.018133 204.868267 4.9152-.068267v68.266667c-64.477867 0-117.230933 51.421867-119.3984 115.370666l-.068266 4.096a34.133333 34.133333 0 0 1 -68.181334 2.56l-.085333-2.56c0-101.888 81.527467-185.053867 182.818133-187.665066z"/></g></svg>