<?xml version="1.0" standalone="no"?><!DOCTYPE svg PUBLIC "-//W3C//DTD SVG 1.1//EN" "http://www.w3.org/Graphics/SVG/1.1/DTD/svg11.dtd"><svg t="1687315690715" class="icon" viewBox="0 0 1024 1024" version="1.1" xmlns="http://www.w3.org/2000/svg" p-id="1803" xmlns:xlink="http://www.w3.org/1999/xlink" width="1024" height="1024"><path d="M914.285714 88.777143a154.697143 154.697143 0 0 1-154.605714 147.291428H264.32A154.697143 154.697143 0 0 1 109.714286 88.777143 146.285714 146.285714 0 0 0 0 230.4V877.714286a146.285714 146.285714 0 0 0 146.285714 146.285714h731.428572a146.285714 146.285714 0 0 0 146.285714-146.285714V230.4a146.285714 146.285714 0 0 0-109.714286-141.622857zM704.731429 672.274286a10.24 10.24 0 0 1-1.737143 2.194285c-0.548571 0.64-59.702857 66.377143-45.714286 129.554286 11.154286 39.954286 29.805714 111.451429 27.428571 130.285714a18.834286 18.834286 0 0 1-18.925714 16.548572H438.857143a19.291429 19.291429 0 0 1-14.537143-6.674286 19.017143 19.017143 0 0 1-4.205714-15.36c7.222857-42.971429 9.6-88.045714 6.034285-104.868571-43.428571 6.217143-94.537143 6.582857-103.314285-23.131429a89.142857 89.142857 0 0 1 1.188571-48.548571A17.005714 17.005714 0 0 1 320 749.714286a28.982857 28.982857 0 0 1-10.422857-33.737143 36.571429 36.571429 0 0 1 2.651428-33.645714 24.594286 24.594286 0 0 0 1.462858-2.651429c-13.074286-2.194286-32.091429-8.137143-38.034286-24.411429-3.017143-8.137143-3.657143-20.754286 10.148571-35.2a403.657143 403.657143 0 0 0 41.965715-66.377142 32.182857 32.182857 0 0 1-4.114286-9.142858 49.28 49.28 0 0 1 7.954286-37.851428C334.811429 477.165714 360.685714 343.131429 530.285714 338.285714c0.731429 0 157.897143-9.142857 209.554286 135.588572 4.297143 10.697143 36.114286 92.982857-35.108571 198.4z" p-id="1804" fill="#f19a7e"></path><path d="M264.32 162.925714h495.36a81.462857 81.462857 0 0 0 0-162.925714H264.32a81.462857 81.462857 0 0 0 0 162.925714z" p-id="1805" fill="#f19a7e"></path></svg>