<svg height="1024" viewBox="0 0 1024 1024" width="1024" xmlns="http://www.w3.org/2000/svg"><path d="m213.333333 682.666667v42.666666a85.333333 85.333333 0 0 0 78.933334 85.12l6.4.213334h85.333333a42.666667 42.666667 0 0 1 0 85.333333h-85.333333a170.666667 170.666667 0 0 1 -170.666667-170.666667v-42.666666a42.666667 42.666667 0 0 1 85.333333 0zm560.042667-242.602667 170.666667 426.666667a21.333333 21.333333 0 0 1 -19.84 29.269333h-45.994667a21.333333 21.333333 0 0 1 -19.797333-13.397333l-45.866667-114.602667h-174.506667l-45.781333 114.602667a21.333333 21.333333 0 0 1 -19.84 13.397333h-45.909333a21.333333 21.333333 0 0 1 -19.797334-29.269333l170.666667-426.666667a21.333333 21.333333 0 0 1 19.797333-13.397333h56.405334a21.333333 21.333333 0 0 1 19.84 13.397333zm-48.042667 109.696-53.205333 132.906667h106.325333zm-384-443.093333v64h149.333334a21.333333 21.333333 0 0 1 21.333333 21.333333v256a21.333333 21.333333 0 0 1 -21.333333 21.333333h-149.333334v106.666667a21.333333 21.333333 0 0 1 -21.333333 21.333333h-42.666667a21.333333 21.333333 0 0 1 -21.333333-21.333333v-106.666667h-149.333333a21.333333 21.333333 0 0 1 -21.333334-21.333333v-256a21.333333 21.333333 0 0 1 21.333334-21.333333h149.333333v-64a21.333333 21.333333 0 0 1 21.333333-21.333334h42.666667a21.333333 21.333333 0 0 1 21.333333 21.333334zm384 21.333333a170.666667 170.666667 0 0 1 170.666667 170.666667v42.666666a42.666667 42.666667 0 0 1 -85.333333 0v-42.666666a85.333333 85.333333 0 0 0 -85.333334-85.333334h-85.333333a42.666667 42.666667 0 0 1 0-85.333333zm-469.333333 128h-85.333333v128h85.333333zm170.666667 0h-85.333334v128h85.333334z" fill="#10b981"/></svg>